solid OpenSCAD_Model
  facet normal 0.757297 0.653071 0
    outer loop
      vertex -14.3879 3 -8
      vertex -13.4717 1.93758 -8
      vertex -14.3879 3 -8.2291
    endloop
  endfacet
  facet normal 0.757332 0.65303 0
    outer loop
      vertex -14.3879 3 -8.2291
      vertex -15.0644 3.78455 -10
      vertex -15.0644 3.78455 -8.68714
    endloop
  endfacet
  facet normal 0.757297 0.653071 -0
    outer loop
      vertex -13.4717 1.93758 -10
      vertex -14.3879 3 -8.2291
      vertex -13.4717 1.93758 -8
    endloop
  endfacet
  facet normal 0.757312 0.653054 1.79627e-05
    outer loop
      vertex -14.3879 3 -8.2291
      vertex -13.4717 1.93758 -10
      vertex -15.0644 3.78455 -10
    endloop
  endfacet
  facet normal 0.963379 0.268144 0
    outer loop
      vertex -12.9324 0 -8
      vertex -13.4717 1.93758 -10
      vertex -13.4717 1.93758 -8
    endloop
  endfacet
  facet normal 0.963379 0.268144 0
    outer loop
      vertex -13.4717 1.93758 -10
      vertex -12.9324 0 -8
      vertex -12.9324 0 -10
    endloop
  endfacet
  facet normal 0.54462 0.838683 -2.44178e-05
    outer loop
      vertex -15.3021 3.93894 -8.8481
      vertex -15.0644 3.78455 -10
      vertex -16.9361 5 -9.49815
    endloop
  endfacet
  facet normal 0.544703 0.838629 -0
    outer loop
      vertex -15.0644 3.78455 -10
      vertex -15.3021 3.93894 -8.8481
      vertex -15.0644 3.78455 -8.68714
    endloop
  endfacet
  facet normal 0.544681 0.838643 -0
    outer loop
      vertex -16.9361 5 -9.49815
      vertex -17.636 5.45457 -8
      vertex -16.9361 5 -8
    endloop
  endfacet
  facet normal 0.544681 0.838643 0
    outer loop
      vertex -16.9361 5 -9.49815
      vertex -17.636 5.45457 -10
      vertex -17.636 5.45457 -8
    endloop
  endfacet
  facet normal 0.54464 0.83867 8.13704e-05
    outer loop
      vertex -17.636 5.45457 -10
      vertex -16.9361 5 -9.49815
      vertex -15.0644 3.78455 -10
    endloop
  endfacet
  facet normal 0.381322 0.924442 -0
    outer loop
      vertex -17.636 5.45457 -10
      vertex -21.0663 6.86953 -8
      vertex -17.636 5.45457 -8
    endloop
  endfacet
  facet normal 0.381322 0.924442 0
    outer loop
      vertex -21.0663 6.86953 -8
      vertex -17.636 5.45457 -10
      vertex -21.0663 6.86953 -10
    endloop
  endfacet
  facet normal 0.0639264 0.997955 -0
    outer loop
      vertex -29.8288 8.68469 -10
      vertex -34.7511 9 -8
      vertex -29.8288 8.68469 -8
    endloop
  endfacet
  facet normal 0.0639264 0.997955 0
    outer loop
      vertex -34.7511 9 -8
      vertex -29.8288 8.68469 -10
      vertex -34.7511 9 -10
    endloop
  endfacet
  facet normal 0.0639264 -0.997955 0
    outer loop
      vertex -34.7511 -9 -10
      vertex -29.8288 -8.68469 -8
      vertex -34.7511 -9 -8
    endloop
  endfacet
  facet normal 0.0639264 -0.997955 0
    outer loop
      vertex -29.8288 -8.68469 -8
      vertex -34.7511 -9 -10
      vertex -29.8288 -8.68469 -10
    endloop
  endfacet
  facet normal 0.544739 -0.838606 0
    outer loop
      vertex -17.636 -5.45457 -10
      vertex -17.3169 -5.24729 -9.64965
      vertex -17.636 -5.45457 -9.7019
    endloop
  endfacet
  facet normal 0.54464 -0.83867 0.000128334
    outer loop
      vertex -15.0644 -3.78455 -10
      vertex -17.3169 -5.24729 -9.64965
      vertex -17.636 -5.45457 -10
    endloop
  endfacet
  facet normal 0.544703 -0.838629 0
    outer loop
      vertex -15.3021 -3.93894 -8.8481
      vertex -15.0644 -3.78455 -10
      vertex -15.0644 -3.78455 -8.68714
    endloop
  endfacet
  facet normal 0.544623 -0.838681 -2.34358e-05
    outer loop
      vertex -17.3169 -5.24729 -9.64965
      vertex -15.0644 -3.78455 -10
      vertex -15.3021 -3.93894 -8.8481
    endloop
  endfacet
  facet normal -0.202848 0.97921 0
    outer loop
      vertex -44.5382 8.37307 -10
      vertex -48.9452 7.46014 -8
      vertex -44.5382 8.37307 -8
    endloop
  endfacet
  facet normal -0.202848 0.97921 0
    outer loop
      vertex -48.9452 7.46014 -8
      vertex -44.5382 8.37307 -10
      vertex -48.9452 7.46014 -10
    endloop
  endfacet
  facet normal -0.314988 0.949096 0
    outer loop
      vertex -48.9452 7.46014 -10
      vertex -52.747 6.19839 -8
      vertex -48.9452 7.46014 -8
    endloop
  endfacet
  facet normal -0.314988 0.949096 0
    outer loop
      vertex -52.747 6.19839 -8
      vertex -48.9452 7.46014 -10
      vertex -52.747 6.19839 -10
    endloop
  endfacet
  facet normal 0.256088 0.966653 -0
    outer loop
      vertex -21.0663 6.86953 -10
      vertex -25.1949 7.96329 -8
      vertex -21.0663 6.86953 -8
    endloop
  endfacet
  facet normal 0.256088 0.966653 0
    outer loop
      vertex -25.1949 7.96329 -8
      vertex -21.0663 6.86953 -10
      vertex -25.1949 7.96329 -10
    endloop
  endfacet
  facet normal -0.0211806 0.999776 0
    outer loop
      vertex -34.7511 9 -10
      vertex -39.7319 8.89448 -8
      vertex -34.7511 9 -8
    endloop
  endfacet
  facet normal -0.0211806 0.999776 0
    outer loop
      vertex -39.7319 8.89448 -8
      vertex -34.7511 9 -10
      vertex -39.7319 8.89448 -10
    endloop
  endfacet
  facet normal 0.256088 -0.966653 0
    outer loop
      vertex -25.1949 -7.96329 -10
      vertex -21.0663 -6.86953 -8
      vertex -25.1949 -7.96329 -8
    endloop
  endfacet
  facet normal 0.256088 -0.966653 0
    outer loop
      vertex -21.0663 -6.86953 -8
      vertex -25.1949 -7.96329 -10
      vertex -21.0663 -6.86953 -10
    endloop
  endfacet
  facet normal 0.963379 -0.268144 0
    outer loop
      vertex -13.4717 -1.93758 -8
      vertex -12.9324 0 -10
      vertex -12.9324 0 -8
    endloop
  endfacet
  facet normal 0.963379 -0.268144 0
    outer loop
      vertex -12.9324 0 -10
      vertex -13.4717 -1.93758 -8
      vertex -13.4717 -1.93758 -10
    endloop
  endfacet
  facet normal -0.107852 0.994167 0
    outer loop
      vertex -39.7319 8.89448 -10
      vertex -44.5382 8.37307 -8
      vertex -39.7319 8.89448 -8
    endloop
  endfacet
  facet normal -0.107852 0.994167 0
    outer loop
      vertex -44.5382 8.37307 -8
      vertex -39.7319 8.89448 -10
      vertex -44.5382 8.37307 -10
    endloop
  endfacet
  facet normal -1 0 0
    outer loop
      vertex -58.9324 -0.9745 -10
      vertex -58.9324 0.9745 -8
      vertex -58.9324 0.9745 -10
    endloop
  endfacet
  facet normal -1 -0 0
    outer loop
      vertex -58.9324 0.9745 -8
      vertex -58.9324 -0.9745 -10
      vertex -58.9324 -0.9745 -8
    endloop
  endfacet
  facet normal 0.153826 -0.988098 0
    outer loop
      vertex -29.8288 -8.68469 -10
      vertex -25.1949 -7.96329 -8
      vertex -29.8288 -8.68469 -8
    endloop
  endfacet
  facet normal 0.153826 -0.988098 0
    outer loop
      vertex -25.1949 -7.96329 -8
      vertex -29.8288 -8.68469 -10
      vertex -25.1949 -7.96329 -10
    endloop
  endfacet
  facet normal -0.457154 0.889388 0
    outer loop
      vertex -52.747 6.19839 -10
      vertex -55.7656 4.6468 -8
      vertex -52.747 6.19839 -8
    endloop
  endfacet
  facet normal -0.457154 0.889388 0
    outer loop
      vertex -55.7656 4.6468 -8
      vertex -52.747 6.19839 -10
      vertex -55.7656 4.6468 -10
    endloop
  endfacet
  facet normal 0.381328 -0.92444 0
    outer loop
      vertex -21.0663 -6.86953 -8
      vertex -17.7462 -5.5 -9.71993
      vertex -17.7462 -5.5 -8
    endloop
  endfacet
  facet normal 0.381328 -0.92444 0
    outer loop
      vertex -17.7462 -5.5 -9.71993
      vertex -21.0663 -6.86953 -8
      vertex -21.0663 -6.86953 -10
    endloop
  endfacet
  facet normal 0.381134 -0.92452 0
    outer loop
      vertex -17.7462 -5.5 -9.71993
      vertex -17.636 -5.45457 -10
      vertex -17.636 -5.45457 -9.7019
    endloop
  endfacet
  facet normal 0.381322 -0.924442 8.66618e-05
    outer loop
      vertex -17.636 -5.45457 -10
      vertex -17.7462 -5.5 -9.71993
      vertex -21.0663 -6.86953 -10
    endloop
  endfacet
  facet normal 0.153826 0.988098 -0
    outer loop
      vertex -25.1949 7.96329 -10
      vertex -29.8288 8.68469 -8
      vertex -25.1949 7.96329 -8
    endloop
  endfacet
  facet normal 0.153826 0.988098 0
    outer loop
      vertex -29.8288 8.68469 -8
      vertex -25.1949 7.96329 -10
      vertex -29.8288 8.68469 -10
    endloop
  endfacet
  facet normal -0.871258 -0.490825 0
    outer loop
      vertex -57.8601 -2.87793 -10
      vertex -58.9324 -0.9745 -8
      vertex -58.9324 -0.9745 -10
    endloop
  endfacet
  facet normal -0.871258 -0.490825 0
    outer loop
      vertex -58.9324 -0.9745 -8
      vertex -57.8601 -2.87793 -10
      vertex -57.8601 -2.87793 -8
    endloop
  endfacet
  facet normal 0.757317 -0.653047 0
    outer loop
      vertex -14.819 -3.5 -8.52101
      vertex -13.4717 -1.93758 -8
      vertex -14.819 -3.5 -8
    endloop
  endfacet
  facet normal 0.757317 -0.653047 0
    outer loop
      vertex -13.4717 -1.93758 -8
      vertex -14.819 -3.5 -8.52101
      vertex -13.4717 -1.93758 -10
    endloop
  endfacet
  facet normal 0.757281 -0.65309 0
    outer loop
      vertex -15.0644 -3.78455 -10
      vertex -14.819 -3.5 -8.52101
      vertex -15.0644 -3.78455 -8.68714
    endloop
  endfacet
  facet normal 0.757312 -0.653054 -1.21022e-05
    outer loop
      vertex -14.819 -3.5 -8.52101
      vertex -15.0644 -3.78455 -10
      vertex -13.4717 -1.93758 -10
    endloop
  endfacet
  facet normal -0.645219 -0.763997 0
    outer loop
      vertex -57.8601 -2.87793 -10
      vertex -55.7656 -4.6468 -8
      vertex -57.8601 -2.87793 -8
    endloop
  endfacet
  facet normal -0.645219 -0.763997 -0
    outer loop
      vertex -55.7656 -4.6468 -8
      vertex -57.8601 -2.87793 -10
      vertex -55.7656 -4.6468 -10
    endloop
  endfacet
  facet normal 0 0 1
    outer loop
      vertex -25.9692 5 -8
      vertex -17.636 5.45457 -8
      vertex -21.0663 6.86953 -8
    endloop
  endfacet
  facet normal 0 0 1
    outer loop
      vertex -25.9692 5 -8
      vertex -21.0663 6.86953 -8
      vertex -25.1949 7.96329 -8
    endloop
  endfacet
  facet normal 0 0 1
    outer loop
      vertex -17.636 5.45457 -8
      vertex -25.9692 5 -8
      vertex -16.9361 5 -8
    endloop
  endfacet
  facet normal 0 0 1
    outer loop
      vertex -29.8288 8.68469 -8
      vertex -25.9692 3 -8
      vertex -25.9692 5 -8
    endloop
  endfacet
  facet normal 0 0 1
    outer loop
      vertex -34.7511 -9 -8
      vertex -25.9692 3 -8
      vertex -34.7511 9 -8
    endloop
  endfacet
  facet normal 0 0 1
    outer loop
      vertex -25.9692 3 -8
      vertex -29.8288 8.68469 -8
      vertex -34.7511 9 -8
    endloop
  endfacet
  facet normal 0 0 1
    outer loop
      vertex -29.8288 8.68469 -8
      vertex -25.9692 5 -8
      vertex -25.1949 7.96329 -8
    endloop
  endfacet
  facet normal 0 0 1
    outer loop
      vertex -13.4717 1.93758 -8
      vertex -13.4717 -1.93758 -8
      vertex -12.9324 0 -8
    endloop
  endfacet
  facet normal 0 0 1
    outer loop
      vertex -14.3879 3 -8
      vertex -13.4717 -1.93758 -8
      vertex -13.4717 1.93758 -8
    endloop
  endfacet
  facet normal 0 0 1
    outer loop
      vertex -14.3879 3 -8
      vertex -14.819 -3.5 -8
      vertex -13.4717 -1.93758 -8
    endloop
  endfacet
  facet normal -0 0 1
    outer loop
      vertex -25.9692 3 -8
      vertex -14.819 -3.5 -8
      vertex -14.3879 3 -8
    endloop
  endfacet
  facet normal 0 0 1
    outer loop
      vertex -14.819 -3.5 -8
      vertex -25.9692 3 -8
      vertex -25.9692 -3.5 -8
    endloop
  endfacet
  facet normal -0 0 1
    outer loop
      vertex -25.9692 -5.5 -8
      vertex -21.0663 -6.86953 -8
      vertex -17.7462 -5.5 -8
    endloop
  endfacet
  facet normal 0 0 1
    outer loop
      vertex -21.0663 -6.86953 -8
      vertex -25.9692 -5.5 -8
      vertex -25.1949 -7.96329 -8
    endloop
  endfacet
  facet normal 0 0 1
    outer loop
      vertex -25.9692 -5.5 -8
      vertex -29.8288 -8.68469 -8
      vertex -25.1949 -7.96329 -8
    endloop
  endfacet
  facet normal 0 0 1
    outer loop
      vertex -25.9692 3 -8
      vertex -34.7511 -9 -8
      vertex -25.9692 -3.5 -8
    endloop
  endfacet
  facet normal 0 -0 1
    outer loop
      vertex -29.8288 -8.68469 -8
      vertex -25.9692 -3.5 -8
      vertex -34.7511 -9 -8
    endloop
  endfacet
  facet normal 0 0 1
    outer loop
      vertex -25.9692 -3.5 -8
      vertex -29.8288 -8.68469 -8
      vertex -25.9692 -5.5 -8
    endloop
  endfacet
  facet normal -0 0 1
    outer loop
      vertex -39.7319 8.89448 -8
      vertex -34.7511 -9 -8
      vertex -34.7511 9 -8
    endloop
  endfacet
  facet normal 0 0 1
    outer loop
      vertex -39.7319 8.89448 -8
      vertex -39.7319 -8.89448 -8
      vertex -34.7511 -9 -8
    endloop
  endfacet
  facet normal -0 0 1
    outer loop
      vertex -44.5382 8.37307 -8
      vertex -39.7319 -8.89448 -8
      vertex -39.7319 8.89448 -8
    endloop
  endfacet
  facet normal 0 0 1
    outer loop
      vertex -44.5382 8.37307 -8
      vertex -44.5382 -8.37307 -8
      vertex -39.7319 -8.89448 -8
    endloop
  endfacet
  facet normal -0 0 1
    outer loop
      vertex -48.9452 7.46014 -8
      vertex -44.5382 -8.37307 -8
      vertex -44.5382 8.37307 -8
    endloop
  endfacet
  facet normal 0 0 1
    outer loop
      vertex -48.9452 7.46014 -8
      vertex -48.9452 -7.46014 -8
      vertex -44.5382 -8.37307 -8
    endloop
  endfacet
  facet normal -0 0 1
    outer loop
      vertex -52.747 6.19839 -8
      vertex -48.9452 -7.46014 -8
      vertex -48.9452 7.46014 -8
    endloop
  endfacet
  facet normal 0 0 1
    outer loop
      vertex -52.747 6.19839 -8
      vertex -52.747 -6.19839 -8
      vertex -48.9452 -7.46014 -8
    endloop
  endfacet
  facet normal -0 0 1
    outer loop
      vertex -55.7656 4.6468 -8
      vertex -52.747 -6.19839 -8
      vertex -52.747 6.19839 -8
    endloop
  endfacet
  facet normal 0 0 1
    outer loop
      vertex -55.7656 4.6468 -8
      vertex -55.7656 -4.6468 -8
      vertex -52.747 -6.19839 -8
    endloop
  endfacet
  facet normal -0 0 1
    outer loop
      vertex -57.8601 2.87793 -8
      vertex -55.7656 -4.6468 -8
      vertex -55.7656 4.6468 -8
    endloop
  endfacet
  facet normal 0 0 1
    outer loop
      vertex -57.8601 2.87793 -8
      vertex -57.8601 -2.87793 -8
      vertex -55.7656 -4.6468 -8
    endloop
  endfacet
  facet normal -0 0 1
    outer loop
      vertex -58.9324 0.9745 -8
      vertex -57.8601 -2.87793 -8
      vertex -57.8601 2.87793 -8
    endloop
  endfacet
  facet normal 0 0 1
    outer loop
      vertex -57.8601 -2.87793 -8
      vertex -58.9324 0.9745 -8
      vertex -58.9324 -0.9745 -8
    endloop
  endfacet
  facet normal -0.107852 -0.994167 0
    outer loop
      vertex -44.5382 -8.37307 -10
      vertex -39.7319 -8.89448 -8
      vertex -44.5382 -8.37307 -8
    endloop
  endfacet
  facet normal -0.107852 -0.994167 -0
    outer loop
      vertex -39.7319 -8.89448 -8
      vertex -44.5382 -8.37307 -10
      vertex -39.7319 -8.89448 -10
    endloop
  endfacet
  facet normal -0.457154 -0.889388 0
    outer loop
      vertex -55.7656 -4.6468 -10
      vertex -52.747 -6.19839 -8
      vertex -55.7656 -4.6468 -8
    endloop
  endfacet
  facet normal -0.457154 -0.889388 -0
    outer loop
      vertex -52.747 -6.19839 -8
      vertex -55.7656 -4.6468 -10
      vertex -52.747 -6.19839 -10
    endloop
  endfacet
  facet normal -0.0211806 -0.999776 0
    outer loop
      vertex -39.7319 -8.89448 -10
      vertex -34.7511 -9 -8
      vertex -39.7319 -8.89448 -8
    endloop
  endfacet
  facet normal -0.0211806 -0.999776 -0
    outer loop
      vertex -34.7511 -9 -8
      vertex -39.7319 -8.89448 -10
      vertex -34.7511 -9 -10
    endloop
  endfacet
  facet normal -0.202848 -0.97921 0
    outer loop
      vertex -48.9452 -7.46014 -10
      vertex -44.5382 -8.37307 -8
      vertex -48.9452 -7.46014 -8
    endloop
  endfacet
  facet normal -0.202848 -0.97921 -0
    outer loop
      vertex -44.5382 -8.37307 -8
      vertex -48.9452 -7.46014 -10
      vertex -44.5382 -8.37307 -10
    endloop
  endfacet
  facet normal -0.314988 -0.949096 0
    outer loop
      vertex -52.747 -6.19839 -10
      vertex -48.9452 -7.46014 -8
      vertex -52.747 -6.19839 -8
    endloop
  endfacet
  facet normal -0.314988 -0.949096 -0
    outer loop
      vertex -48.9452 -7.46014 -8
      vertex -52.747 -6.19839 -10
      vertex -48.9452 -7.46014 -10
    endloop
  endfacet
  facet normal -0.871258 0.490825 0
    outer loop
      vertex -58.9324 0.9745 -10
      vertex -57.8601 2.87793 -8
      vertex -57.8601 2.87793 -10
    endloop
  endfacet
  facet normal -0.871258 0.490825 0
    outer loop
      vertex -57.8601 2.87793 -8
      vertex -58.9324 0.9745 -10
      vertex -58.9324 0.9745 -8
    endloop
  endfacet
  facet normal -0.645219 0.763997 0
    outer loop
      vertex -55.7656 4.6468 -10
      vertex -57.8601 2.87793 -8
      vertex -55.7656 4.6468 -8
    endloop
  endfacet
  facet normal -0.645219 0.763997 0
    outer loop
      vertex -57.8601 2.87793 -8
      vertex -55.7656 4.6468 -10
      vertex -57.8601 2.87793 -10
    endloop
  endfacet
  facet normal 0 0 -1
    outer loop
      vertex -13.4717 -1.93758 -10
      vertex -13.4717 1.93758 -10
      vertex -12.9324 0 -10
    endloop
  endfacet
  facet normal 0 0 -1
    outer loop
      vertex -15.0644 -3.78455 -10
      vertex -13.4717 1.93758 -10
      vertex -13.4717 -1.93758 -10
    endloop
  endfacet
  facet normal 0 0 -1
    outer loop
      vertex -15.0644 -3.78455 -10
      vertex -15.0644 3.78455 -10
      vertex -13.4717 1.93758 -10
    endloop
  endfacet
  facet normal 0 0 -1
    outer loop
      vertex -17.636 -5.45457 -10
      vertex -15.0644 3.78455 -10
      vertex -15.0644 -3.78455 -10
    endloop
  endfacet
  facet normal 0 0 -1
    outer loop
      vertex -17.636 -5.45457 -10
      vertex -17.636 5.45457 -10
      vertex -15.0644 3.78455 -10
    endloop
  endfacet
  facet normal 0 0 -1
    outer loop
      vertex -21.0663 -6.86953 -10
      vertex -17.636 5.45457 -10
      vertex -17.636 -5.45457 -10
    endloop
  endfacet
  facet normal 0 0 -1
    outer loop
      vertex -21.0663 -6.86953 -10
      vertex -21.0663 6.86953 -10
      vertex -17.636 5.45457 -10
    endloop
  endfacet
  facet normal 0 0 -1
    outer loop
      vertex -25.1949 -7.96329 -10
      vertex -21.0663 6.86953 -10
      vertex -21.0663 -6.86953 -10
    endloop
  endfacet
  facet normal 0 0 -1
    outer loop
      vertex -25.1949 -7.96329 -10
      vertex -25.1949 7.96329 -10
      vertex -21.0663 6.86953 -10
    endloop
  endfacet
  facet normal 0 0 -1
    outer loop
      vertex -29.8288 -8.68469 -10
      vertex -25.1949 7.96329 -10
      vertex -25.1949 -7.96329 -10
    endloop
  endfacet
  facet normal 0 0 -1
    outer loop
      vertex -29.8288 -8.68469 -10
      vertex -29.8288 8.68469 -10
      vertex -25.1949 7.96329 -10
    endloop
  endfacet
  facet normal 0 0 -1
    outer loop
      vertex -34.7511 -9 -10
      vertex -29.8288 8.68469 -10
      vertex -29.8288 -8.68469 -10
    endloop
  endfacet
  facet normal 0 0 -1
    outer loop
      vertex -34.7511 -9 -10
      vertex -34.7511 9 -10
      vertex -29.8288 8.68469 -10
    endloop
  endfacet
  facet normal 0 0 -1
    outer loop
      vertex -39.7319 -8.89448 -10
      vertex -34.7511 9 -10
      vertex -34.7511 -9 -10
    endloop
  endfacet
  facet normal 0 0 -1
    outer loop
      vertex -39.7319 -8.89448 -10
      vertex -39.7319 8.89448 -10
      vertex -34.7511 9 -10
    endloop
  endfacet
  facet normal 0 0 -1
    outer loop
      vertex -44.5382 -8.37307 -10
      vertex -39.7319 8.89448 -10
      vertex -39.7319 -8.89448 -10
    endloop
  endfacet
  facet normal 0 0 -1
    outer loop
      vertex -44.5382 -8.37307 -10
      vertex -44.5382 8.37307 -10
      vertex -39.7319 8.89448 -10
    endloop
  endfacet
  facet normal 0 0 -1
    outer loop
      vertex -48.9452 -7.46014 -10
      vertex -44.5382 8.37307 -10
      vertex -44.5382 -8.37307 -10
    endloop
  endfacet
  facet normal 0 0 -1
    outer loop
      vertex -48.9452 -7.46014 -10
      vertex -48.9452 7.46014 -10
      vertex -44.5382 8.37307 -10
    endloop
  endfacet
  facet normal 0 0 -1
    outer loop
      vertex -52.747 -6.19839 -10
      vertex -48.9452 7.46014 -10
      vertex -48.9452 -7.46014 -10
    endloop
  endfacet
  facet normal 0 0 -1
    outer loop
      vertex -52.747 -6.19839 -10
      vertex -52.747 6.19839 -10
      vertex -48.9452 7.46014 -10
    endloop
  endfacet
  facet normal 0 0 -1
    outer loop
      vertex -55.7656 -4.6468 -10
      vertex -52.747 6.19839 -10
      vertex -52.747 -6.19839 -10
    endloop
  endfacet
  facet normal 0 0 -1
    outer loop
      vertex -55.7656 -4.6468 -10
      vertex -55.7656 4.6468 -10
      vertex -52.747 6.19839 -10
    endloop
  endfacet
  facet normal 0 0 -1
    outer loop
      vertex -57.8601 -2.87793 -10
      vertex -55.7656 4.6468 -10
      vertex -55.7656 -4.6468 -10
    endloop
  endfacet
  facet normal 0 0 -1
    outer loop
      vertex -57.8601 -2.87793 -10
      vertex -57.8601 2.87793 -10
      vertex -55.7656 4.6468 -10
    endloop
  endfacet
  facet normal 0 0 -1
    outer loop
      vertex -58.9324 -0.9745 -10
      vertex -57.8601 2.87793 -10
      vertex -57.8601 -2.87793 -10
    endloop
  endfacet
  facet normal 0 0 -1
    outer loop
      vertex -57.8601 2.87793 -10
      vertex -58.9324 -0.9745 -10
      vertex -58.9324 0.9745 -10
    endloop
  endfacet
  facet normal 0.99412 -0 0.108287
    outer loop
      vertex -10 3 0.269904
      vertex -9.9706 5 0
      vertex -10 5 0.269904
    endloop
  endfacet
  facet normal 0.99412 0 0.108287
    outer loop
      vertex -9.9706 5 0
      vertex -10 3 0.269904
      vertex -9.9706 3 0
    endloop
  endfacet
  facet normal -0.0540562 0 0.998538
    outer loop
      vertex -21.6226 5 9.88276
      vertex -20 3 9.9706
      vertex -20 5 9.9706
    endloop
  endfacet
  facet normal -0.0540562 0 0.998538
    outer loop
      vertex -20 3 9.9706
      vertex -21.6226 5 9.88276
      vertex -21.6226 3 9.88276
    endloop
  endfacet
  facet normal -0.646843 0 0.762623
    outer loop
      vertex -27.2813 5 6.88709
      vertex -25.6284 3 8.28905
      vertex -25.6284 5 8.28905
    endloop
  endfacet
  facet normal -0.646843 0 0.762623
    outer loop
      vertex -25.6284 3 8.28905
      vertex -27.2813 5 6.88709
      vertex -27.2813 3 6.88709
    endloop
  endfacet
  facet normal 0.99412 0 -0.108284
    outer loop
      vertex -9.9706 3 0
      vertex -10.2051 5 -2.15286
      vertex -9.9706 5 0
    endloop
  endfacet
  facet normal 0.99412 0 -0.108284
    outer loop
      vertex -10.2051 5 -2.15286
      vertex -9.9706 3 0
      vertex -10.2051 3 -2.15286
    endloop
  endfacet
  facet normal -0.467871 0 0.883797
    outer loop
      vertex -25.6284 5 8.28905
      vertex -23.7123 3 9.30341
      vertex -23.7123 5 9.30341
    endloop
  endfacet
  facet normal -0.467871 0 0.883797
    outer loop
      vertex -23.7123 3 9.30341
      vertex -25.6284 5 8.28905
      vertex -25.6284 3 8.28905
    endloop
  endfacet
  facet normal -0.795656 0 -0.605749
    outer loop
      vertex -27.2813 3 -6.88709
      vertex -28.5938 5 -5.16311
      vertex -27.2813 5 -6.88709
    endloop
  endfacet
  facet normal -0.795656 -0 -0.605749
    outer loop
      vertex -28.5938 5 -5.16311
      vertex -27.2813 3 -6.88709
      vertex -28.5938 3 -5.16311
    endloop
  endfacet
  facet normal -0.646847 0 -0.76262
    outer loop
      vertex -27.2813 3 -6.88709
      vertex -25.9692 5 -8
      vertex -25.9692 3 -8
    endloop
  endfacet
  facet normal -0.646847 0 -0.76262
    outer loop
      vertex -25.9692 5 -8
      vertex -27.2813 3 -6.88709
      vertex -27.2813 5 -6.88709
    endloop
  endfacet
  facet normal 0.725499 0 -0.688223
    outer loop
      vertex -12.0157 3 -6.06063
      vertex -13.5071 5 -7.63281
      vertex -12.0157 5 -6.06063
    endloop
  endfacet
  facet normal 0.725499 0 -0.688223
    outer loop
      vertex -13.5071 5 -7.63281
      vertex -12.0157 3 -6.06063
      vertex -13.5071 3 -7.63281
    endloop
  endfacet
  facet normal -0.976555 0 0.215266
    outer loop
      vertex -29.9706 3 1.08278
      vertex -29.5044 5 3.1977
      vertex -29.9706 5 1.08278
    endloop
  endfacet
  facet normal -0.976555 0 0.215266
    outer loop
      vertex -29.5044 5 3.1977
      vertex -29.9706 3 1.08278
      vertex -29.5044 3 3.1977
    endloop
  endfacet
  facet normal 0.947509 0 -0.31973
    outer loop
      vertex -10.2051 3 -2.15286
      vertex -10.8976 5 -4.20506
      vertex -10.2051 5 -2.15286
    endloop
  endfacet
  facet normal 0.947509 0 -0.31973
    outer loop
      vertex -10.8976 5 -4.20506
      vertex -10.2051 3 -2.15286
      vertex -10.8976 3 -4.20506
    endloop
  endfacet
  facet normal 0.856522 0 -0.51611
    outer loop
      vertex -10.8976 3 -4.20506
      vertex -12.0157 5 -6.06063
      vertex -10.8976 5 -4.20506
    endloop
  endfacet
  facet normal 0.856522 0 -0.51611
    outer loop
      vertex -12.0157 5 -6.06063
      vertex -10.8976 3 -4.20506
      vertex -12.0157 3 -6.06063
    endloop
  endfacet
  facet normal 0.36965 0 -0.929171
    outer loop
      vertex -15.3021 3.93894 -8.8481
      vertex -16.9361 5 -9.49815
      vertex -15.3021 5 -8.8481
    endloop
  endfacet
  facet normal -0.976555 0 -0.215266
    outer loop
      vertex -29.5044 3 -3.1977
      vertex -29.9706 5 -1.08278
      vertex -29.5044 5 -3.1977
    endloop
  endfacet
  facet normal -0.976555 -0 -0.215266
    outer loop
      vertex -29.9706 5 -1.08278
      vertex -29.5044 3 -3.1977
      vertex -29.9706 3 -1.08278
    endloop
  endfacet
  facet normal 0.560603 0 -0.828085
    outer loop
      vertex -14.3879 3 -8.2291
      vertex -13.5071 5 -7.63281
      vertex -13.5071 3 -7.63281
    endloop
  endfacet
  facet normal 0.560635 -2.08418e-05 -0.828063
    outer loop
      vertex -15.0644 3.78455 -8.68714
      vertex -13.5071 5 -7.63281
      vertex -14.3879 3 -8.2291
    endloop
  endfacet
  facet normal 0.560699 0 -0.82802
    outer loop
      vertex -15.3021 5 -8.8481
      vertex -15.0644 3.78455 -8.68714
      vertex -15.3021 3.93894 -8.8481
    endloop
  endfacet
  facet normal 0.560634 -1.85092e-05 -0.828064
    outer loop
      vertex -15.0644 3.78455 -8.68714
      vertex -15.3021 5 -8.8481
      vertex -13.5071 5 -7.63281
    endloop
  endfacet
  facet normal 0 1 -0
    outer loop
      vertex -15.3021 5 -8.8481
      vertex -16.9361 5 -8
      vertex -13.5071 5 -7.63281
    endloop
  endfacet
  facet normal 0 1 0
    outer loop
      vertex -16.9361 5 -8
      vertex -15.3021 5 -8.8481
      vertex -16.9361 5 -9.49815
    endloop
  endfacet
  facet normal 0 1 0
    outer loop
      vertex -10 5 10
      vertex -20 5 9.9706
      vertex -20 5 10
    endloop
  endfacet
  facet normal 0 1 -0
    outer loop
      vertex -10 5 0.269904
      vertex -20 5 9.9706
      vertex -10 5 10
    endloop
  endfacet
  facet normal 0 1 -0
    outer loop
      vertex -16.9361 5 -8
      vertex -20 5 9.9706
      vertex -10 5 0.269904
    endloop
  endfacet
  facet normal -0 1 0
    outer loop
      vertex -23.7123 5 9.30341
      vertex -20 5 9.9706
      vertex -16.9361 5 -8
    endloop
  endfacet
  facet normal 0 1 0
    outer loop
      vertex -20 5 9.9706
      vertex -23.7123 5 9.30341
      vertex -21.6226 5 9.88276
    endloop
  endfacet
  facet normal 0 1 0
    outer loop
      vertex -23.7123 5 9.30341
      vertex -16.9361 5 -8
      vertex -25.6284 5 8.28905
    endloop
  endfacet
  facet normal 0 1 0
    outer loop
      vertex -25.6284 5 8.28905
      vertex -16.9361 5 -8
      vertex -27.2813 5 6.88709
    endloop
  endfacet
  facet normal 0 1 0
    outer loop
      vertex -27.2813 5 6.88709
      vertex -16.9361 5 -8
      vertex -28.5938 5 5.16311
    endloop
  endfacet
  facet normal 0 1 0
    outer loop
      vertex -28.5938 5 5.16311
      vertex -16.9361 5 -8
      vertex -29.5044 5 3.1977
    endloop
  endfacet
  facet normal 0 1 0
    outer loop
      vertex -10.2051 5 -2.15286
      vertex -10 5 0.269904
      vertex -9.9706 5 0
    endloop
  endfacet
  facet normal 0 1 0
    outer loop
      vertex -29.5044 5 3.1977
      vertex -16.9361 5 -8
      vertex -29.9706 5 1.08278
    endloop
  endfacet
  facet normal 0 1 0
    outer loop
      vertex -10 5 0.269904
      vertex -10.2051 5 -2.15286
      vertex -16.9361 5 -8
    endloop
  endfacet
  facet normal 0 1 0
    outer loop
      vertex -29.9706 5 1.08278
      vertex -16.9361 5 -8
      vertex -29.9706 5 -1.08278
    endloop
  endfacet
  facet normal 0 1 0
    outer loop
      vertex -16.9361 5 -8
      vertex -10.2051 5 -2.15286
      vertex -10.8976 5 -4.20506
    endloop
  endfacet
  facet normal 0 1 0
    outer loop
      vertex -29.9706 5 -1.08278
      vertex -16.9361 5 -8
      vertex -29.5044 5 -3.1977
    endloop
  endfacet
  facet normal 0 1 0
    outer loop
      vertex -16.9361 5 -8
      vertex -10.8976 5 -4.20506
      vertex -12.0157 5 -6.06063
    endloop
  endfacet
  facet normal 0 1 0
    outer loop
      vertex -29.5044 5 -3.1977
      vertex -16.9361 5 -8
      vertex -28.5938 5 -5.16311
    endloop
  endfacet
  facet normal 0 1 0
    outer loop
      vertex -16.9361 5 -8
      vertex -12.0157 5 -6.06063
      vertex -13.5071 5 -7.63281
    endloop
  endfacet
  facet normal 0 1 0
    outer loop
      vertex -28.5938 5 -5.16311
      vertex -16.9361 5 -8
      vertex -27.2813 5 -6.88709
    endloop
  endfacet
  facet normal 0 1 0
    outer loop
      vertex -27.2813 5 -6.88709
      vertex -16.9361 5 -8
      vertex -25.9692 5 -8
    endloop
  endfacet
  facet normal -1 0 0
    outer loop
      vertex -29.9706 3 -1.08278
      vertex -29.9706 5 1.08278
      vertex -29.9706 5 -1.08278
    endloop
  endfacet
  facet normal -1 -0 0
    outer loop
      vertex -29.9706 5 1.08278
      vertex -29.9706 3 -1.08278
      vertex -29.9706 3 1.08278
    endloop
  endfacet
  facet normal -0.907346 0 -0.420385
    outer loop
      vertex -28.5938 3 -5.16311
      vertex -29.5044 5 -3.1977
      vertex -28.5938 5 -5.16311
    endloop
  endfacet
  facet normal -0.907346 -0 -0.420385
    outer loop
      vertex -29.5044 5 -3.1977
      vertex -28.5938 3 -5.16311
      vertex -29.5044 3 -3.1977
    endloop
  endfacet
  facet normal -0.267163 0 0.963651
    outer loop
      vertex -23.7123 5 9.30341
      vertex -21.6226 3 9.88276
      vertex -21.6226 5 9.88276
    endloop
  endfacet
  facet normal -0.267163 0 0.963651
    outer loop
      vertex -21.6226 3 9.88276
      vertex -23.7123 5 9.30341
      vertex -23.7123 3 9.30341
    endloop
  endfacet
  facet normal 0 -1 0
    outer loop
      vertex -20 3 10
      vertex -19.0113 3 8.73473
      vertex -17.6137 3 9.18882
    endloop
  endfacet
  facet normal 0 -1 0
    outer loop
      vertex -19.0113 3 7.26527
      vertex -23.7123 3 9.30341
      vertex -25.6284 3 8.28905
    endloop
  endfacet
  facet normal 0 -1 0
    outer loop
      vertex -21.6226 3 9.88276
      vertex -19.0113 3 7.26527
      vertex -19.0113 3 8.73473
    endloop
  endfacet
  facet normal 0 -1 0
    outer loop
      vertex -27.2813 3 6.88709
      vertex -19.0113 3 7.26527
      vertex -25.6284 3 8.28905
    endloop
  endfacet
  facet normal 0 -1 0
    outer loop
      vertex -28.5938 3 5.16311
      vertex -19.0113 3 7.26527
      vertex -27.2813 3 6.88709
    endloop
  endfacet
  facet normal 0 -1 0
    outer loop
      vertex -29.5044 3 3.1977
      vertex -19.0113 3 7.26527
      vertex -28.5938 3 5.16311
    endloop
  endfacet
  facet normal 0 -1 0
    outer loop
      vertex -19.0113 3 8.73473
      vertex -20 3 10
      vertex -20 3 9.9706
    endloop
  endfacet
  facet normal 0 -1 0
    outer loop
      vertex -19.0113 3 8.73473
      vertex -20 3 9.9706
      vertex -21.6226 3 9.88276
    endloop
  endfacet
  facet normal 0 -1 0
    outer loop
      vertex -19.0113 3 7.26527
      vertex -21.6226 3 9.88276
      vertex -23.7123 3 9.30341
    endloop
  endfacet
  facet normal 0 -1 0
    outer loop
      vertex -20 3 10
      vertex -17.6137 3 9.18882
      vertex -10 3 10
    endloop
  endfacet
  facet normal 0 -1 0
    outer loop
      vertex -16.75 3 8
      vertex -10 3 10
      vertex -17.6137 3 9.18882
    endloop
  endfacet
  facet normal 0 -1 0
    outer loop
      vertex -10 3 0.269904
      vertex -16.75 3 8
      vertex -17.6137 3 6.81118
    endloop
  endfacet
  facet normal 0 -1 0
    outer loop
      vertex -29.9706 3 1.08278
      vertex -19.0113 3 7.26527
      vertex -29.5044 3 3.1977
    endloop
  endfacet
  facet normal 0 -1 0
    outer loop
      vertex -29.9706 3 -1.08278
      vertex -19.0113 3 7.26527
      vertex -29.9706 3 1.08278
    endloop
  endfacet
  facet normal 0 -1 0
    outer loop
      vertex -29.5044 3 -3.1977
      vertex -19.0113 3 7.26527
      vertex -29.9706 3 -1.08278
    endloop
  endfacet
  facet normal 0 -1 0
    outer loop
      vertex -16.75 3 8
      vertex -10 3 0.269904
      vertex -10 3 10
    endloop
  endfacet
  facet normal -0 -1 0
    outer loop
      vertex -10.8976 3 -4.20506
      vertex -17.6137 3 6.81118
      vertex -14.3879 3 -8
    endloop
  endfacet
  facet normal 0 -1 0
    outer loop
      vertex -28.5938 3 -5.16311
      vertex -19.0113 3 7.26527
      vertex -29.5044 3 -3.1977
    endloop
  endfacet
  facet normal 0 -1 0
    outer loop
      vertex -17.6137 3 6.81118
      vertex -10.2051 3 -2.15286
      vertex -10 3 0.269904
    endloop
  endfacet
  facet normal 0 -1 0
    outer loop
      vertex -27.2813 3 -6.88709
      vertex -19.0113 3 7.26527
      vertex -28.5938 3 -5.16311
    endloop
  endfacet
  facet normal 0 -1 -0
    outer loop
      vertex -10 3 0.269904
      vertex -10.2051 3 -2.15286
      vertex -9.9706 3 0
    endloop
  endfacet
  facet normal 0 -1 0
    outer loop
      vertex -25.9692 3 -8
      vertex -19.0113 3 7.26527
      vertex -27.2813 3 -6.88709
    endloop
  endfacet
  facet normal 0 -1 0
    outer loop
      vertex -17.6137 3 6.81118
      vertex -10.8976 3 -4.20506
      vertex -10.2051 3 -2.15286
    endloop
  endfacet
  facet normal 0 -1 -0
    outer loop
      vertex -19.0113 3 7.26527
      vertex -25.9692 3 -8
      vertex -17.6137 3 6.81118
    endloop
  endfacet
  facet normal 0 -1 0
    outer loop
      vertex -10.8976 3 -4.20506
      vertex -14.3879 3 -8
      vertex -12.0157 3 -6.06063
    endloop
  endfacet
  facet normal 0 -1 -0
    outer loop
      vertex -17.6137 3 6.81118
      vertex -25.9692 3 -8
      vertex -14.3879 3 -8
    endloop
  endfacet
  facet normal 0 -1 0
    outer loop
      vertex -12.0157 3 -6.06063
      vertex -14.3879 3 -8
      vertex -13.5071 3 -7.63281
    endloop
  endfacet
  facet normal 0 -1 0
    outer loop
      vertex -13.5071 3 -7.63281
      vertex -14.3879 3 -8
      vertex -14.3879 3 -8.2291
    endloop
  endfacet
  facet normal -0.795656 0 0.605749
    outer loop
      vertex -28.5938 3 5.16311
      vertex -27.2813 5 6.88709
      vertex -28.5938 5 5.16311
    endloop
  endfacet
  facet normal -0.795656 0 0.605749
    outer loop
      vertex -27.2813 5 6.88709
      vertex -28.5938 3 5.16311
      vertex -27.2813 3 6.88709
    endloop
  endfacet
  facet normal -0.907346 0 0.420385
    outer loop
      vertex -29.5044 3 3.1977
      vertex -28.5938 5 5.16311
      vertex -29.5044 5 3.1977
    endloop
  endfacet
  facet normal -0.907346 0 0.420385
    outer loop
      vertex -28.5938 5 5.16311
      vertex -29.5044 3 3.1977
      vertex -28.5938 3 5.16311
    endloop
  endfacet
  facet normal -1 0 0
    outer loop
      vertex -20 3 9.9706
      vertex -20 5 10
      vertex -20 5 9.9706
    endloop
  endfacet
  facet normal -1 -0 0
    outer loop
      vertex -20 5 10
      vertex -20 3 9.9706
      vertex -20 3 10
    endloop
  endfacet
  facet normal -0 0 1
    outer loop
      vertex -20 5 10
      vertex -10 3 10
      vertex -10 5 10
    endloop
  endfacet
  facet normal 0 0 1
    outer loop
      vertex -10 3 10
      vertex -20 5 10
      vertex -20 3 10
    endloop
  endfacet
  facet normal 1 -0 0
    outer loop
      vertex -10 3 10
      vertex -10 5 0.269904
      vertex -10 5 10
    endloop
  endfacet
  facet normal 1 0 0
    outer loop
      vertex -10 5 0.269904
      vertex -10 3 10
      vertex -10 3 0.269904
    endloop
  endfacet
  facet normal -0.309006 0 -0.95106
    outer loop
      vertex -19.0113 0.5 7.26527
      vertex -17.6137 3 6.81118
      vertex -17.6137 0.5 6.81118
    endloop
  endfacet
  facet normal -0.309006 0 -0.95106
    outer loop
      vertex -17.6137 3 6.81118
      vertex -19.0113 0.5 7.26527
      vertex -19.0113 3 7.26527
    endloop
  endfacet
  facet normal 0 -1 0
    outer loop
      vertex -19.0113 0.5 8.73473
      vertex -16.75 0.5 8
      vertex -17.6137 0.5 9.18882
    endloop
  endfacet
  facet normal 0 -1 0
    outer loop
      vertex -19.0113 0.5 7.26527
      vertex -16.75 0.5 8
      vertex -19.0113 0.5 8.73473
    endloop
  endfacet
  facet normal 0 -1 0
    outer loop
      vertex -16.75 0.5 8
      vertex -19.0113 0.5 7.26527
      vertex -17.6137 0.5 6.81118
    endloop
  endfacet
  facet normal -0.309006 0 0.95106
    outer loop
      vertex -19.0113 3 8.73473
      vertex -17.6137 0.5 9.18882
      vertex -17.6137 3 9.18882
    endloop
  endfacet
  facet normal -0.309006 0 0.95106
    outer loop
      vertex -17.6137 0.5 9.18882
      vertex -19.0113 3 8.73473
      vertex -19.0113 0.5 8.73473
    endloop
  endfacet
  facet normal 0.809026 -0 0.587773
    outer loop
      vertex -17.6137 0.5 9.18882
      vertex -16.75 3 8
      vertex -17.6137 3 9.18882
    endloop
  endfacet
  facet normal 0.809026 0 0.587773
    outer loop
      vertex -16.75 3 8
      vertex -17.6137 0.5 9.18882
      vertex -16.75 0.5 8
    endloop
  endfacet
  facet normal -1 0 0
    outer loop
      vertex -19.0113 0.5 7.26527
      vertex -19.0113 3 8.73473
      vertex -19.0113 3 7.26527
    endloop
  endfacet
  facet normal -1 -0 0
    outer loop
      vertex -19.0113 3 8.73473
      vertex -19.0113 0.5 7.26527
      vertex -19.0113 0.5 8.73473
    endloop
  endfacet
  facet normal 0.809026 0 -0.587773
    outer loop
      vertex -16.75 0.5 8
      vertex -17.6137 3 6.81118
      vertex -16.75 3 8
    endloop
  endfacet
  facet normal 0.809026 0 -0.587773
    outer loop
      vertex -17.6137 3 6.81118
      vertex -16.75 0.5 8
      vertex -17.6137 0.5 6.81118
    endloop
  endfacet
  facet normal 0.99412 -0 0.108287
    outer loop
      vertex -10 -5.5 0.269904
      vertex -9.9706 -3.5 0
      vertex -10 -3.5 0.269904
    endloop
  endfacet
  facet normal 0.99412 0 0.108287
    outer loop
      vertex -9.9706 -3.5 0
      vertex -10 -5.5 0.269904
      vertex -9.9706 -5.5 0
    endloop
  endfacet
  facet normal -0.0540562 0 0.998538
    outer loop
      vertex -21.6226 -3.5 9.88276
      vertex -20 -5.5 9.9706
      vertex -20 -3.5 9.9706
    endloop
  endfacet
  facet normal -0.0540562 0 0.998538
    outer loop
      vertex -20 -5.5 9.9706
      vertex -21.6226 -3.5 9.88276
      vertex -21.6226 -5.5 9.88276
    endloop
  endfacet
  facet normal -0.646843 0 0.762623
    outer loop
      vertex -27.2813 -3.5 6.88709
      vertex -25.6284 -5.5 8.28905
      vertex -25.6284 -3.5 8.28905
    endloop
  endfacet
  facet normal -0.646843 0 0.762623
    outer loop
      vertex -25.6284 -5.5 8.28905
      vertex -27.2813 -3.5 6.88709
      vertex -27.2813 -5.5 6.88709
    endloop
  endfacet
  facet normal 0.99412 0 -0.108284
    outer loop
      vertex -9.9706 -5.5 0
      vertex -10.2051 -3.5 -2.15286
      vertex -9.9706 -3.5 0
    endloop
  endfacet
  facet normal 0.99412 0 -0.108284
    outer loop
      vertex -10.2051 -3.5 -2.15286
      vertex -9.9706 -5.5 0
      vertex -10.2051 -5.5 -2.15286
    endloop
  endfacet
  facet normal -0.467871 0 0.883797
    outer loop
      vertex -25.6284 -3.5 8.28905
      vertex -23.7123 -5.5 9.30341
      vertex -23.7123 -3.5 9.30341
    endloop
  endfacet
  facet normal -0.467871 0 0.883797
    outer loop
      vertex -23.7123 -5.5 9.30341
      vertex -25.6284 -3.5 8.28905
      vertex -25.6284 -5.5 8.28905
    endloop
  endfacet
  facet normal -0.795656 0 -0.605749
    outer loop
      vertex -27.2813 -5.5 -6.88709
      vertex -28.5938 -3.5 -5.16311
      vertex -27.2813 -3.5 -6.88709
    endloop
  endfacet
  facet normal -0.795656 -0 -0.605749
    outer loop
      vertex -28.5938 -3.5 -5.16311
      vertex -27.2813 -5.5 -6.88709
      vertex -28.5938 -5.5 -5.16311
    endloop
  endfacet
  facet normal -0.646847 0 -0.76262
    outer loop
      vertex -27.2813 -5.5 -6.88709
      vertex -25.9692 -3.5 -8
      vertex -25.9692 -5.5 -8
    endloop
  endfacet
  facet normal -0.646847 0 -0.76262
    outer loop
      vertex -25.9692 -3.5 -8
      vertex -27.2813 -5.5 -6.88709
      vertex -27.2813 -3.5 -6.88709
    endloop
  endfacet
  facet normal 0.725499 0 -0.688223
    outer loop
      vertex -12.0157 -5.5 -6.06063
      vertex -13.5071 -3.5 -7.63281
      vertex -12.0157 -3.5 -6.06063
    endloop
  endfacet
  facet normal 0.725499 0 -0.688223
    outer loop
      vertex -13.5071 -3.5 -7.63281
      vertex -12.0157 -5.5 -6.06063
      vertex -13.5071 -5.5 -7.63281
    endloop
  endfacet
  facet normal -0.976555 0 0.215266
    outer loop
      vertex -29.9706 -5.5 1.08278
      vertex -29.5044 -3.5 3.1977
      vertex -29.9706 -3.5 1.08278
    endloop
  endfacet
  facet normal -0.976555 0 0.215266
    outer loop
      vertex -29.5044 -3.5 3.1977
      vertex -29.9706 -5.5 1.08278
      vertex -29.5044 -5.5 3.1977
    endloop
  endfacet
  facet normal 0.947509 0 -0.31973
    outer loop
      vertex -10.2051 -5.5 -2.15286
      vertex -10.8976 -3.5 -4.20506
      vertex -10.2051 -3.5 -2.15286
    endloop
  endfacet
  facet normal 0.947509 0 -0.31973
    outer loop
      vertex -10.8976 -3.5 -4.20506
      vertex -10.2051 -5.5 -2.15286
      vertex -10.8976 -5.5 -4.20506
    endloop
  endfacet
  facet normal 0.856522 0 -0.51611
    outer loop
      vertex -10.8976 -5.5 -4.20506
      vertex -12.0157 -3.5 -6.06063
      vertex -10.8976 -3.5 -4.20506
    endloop
  endfacet
  facet normal 0.856522 0 -0.51611
    outer loop
      vertex -12.0157 -3.5 -6.06063
      vertex -10.8976 -5.5 -4.20506
      vertex -12.0157 -5.5 -6.06063
    endloop
  endfacet
  facet normal 0.369653 0 -0.92917
    outer loop
      vertex -17.3169 -5.24729 -9.64965
      vertex -15.3021 -5.5 -8.8481
      vertex -17.3169 -5.5 -9.64965
    endloop
  endfacet
  facet normal 0.369653 0 -0.92917
    outer loop
      vertex -15.3021 -5.5 -8.8481
      vertex -17.3169 -5.24729 -9.64965
      vertex -15.3021 -3.93894 -8.8481
    endloop
  endfacet
  facet normal -0.976555 0 -0.215266
    outer loop
      vertex -29.5044 -5.5 -3.1977
      vertex -29.9706 -3.5 -1.08278
      vertex -29.5044 -3.5 -3.1977
    endloop
  endfacet
  facet normal -0.976555 -0 -0.215266
    outer loop
      vertex -29.9706 -3.5 -1.08278
      vertex -29.5044 -5.5 -3.1977
      vertex -29.9706 -5.5 -1.08278
    endloop
  endfacet
  facet normal 0.560624 0 -0.828071
    outer loop
      vertex -15.0644 -3.78455 -8.68714
      vertex -13.5071 -3.5 -7.63281
      vertex -13.5071 -5.5 -7.63281
    endloop
  endfacet
  facet normal 0.560629 -4.06668e-05 -0.828067
    outer loop
      vertex -13.5071 -3.5 -7.63281
      vertex -15.0644 -3.78455 -8.68714
      vertex -14.819 -3.5 -8.52101
    endloop
  endfacet
  facet normal 0.560634 1.31144e-05 -0.828064
    outer loop
      vertex -15.3021 -5.5 -8.8481
      vertex -15.0644 -3.78455 -8.68714
      vertex -13.5071 -5.5 -7.63281
    endloop
  endfacet
  facet normal 0.560699 0 -0.82802
    outer loop
      vertex -15.0644 -3.78455 -8.68714
      vertex -15.3021 -5.5 -8.8481
      vertex -15.3021 -3.93894 -8.8481
    endloop
  endfacet
  facet normal 0.16159 0 -0.986858
    outer loop
      vertex -17.3169 -5.5 -9.64965
      vertex -17.636 -5.45457 -9.7019
      vertex -17.3169 -5.24729 -9.64965
    endloop
  endfacet
  facet normal 0.161558 -0.000231598 -0.986863
    outer loop
      vertex -17.636 -5.45457 -9.7019
      vertex -17.3169 -5.5 -9.64965
      vertex -17.7462 -5.5 -9.71993
    endloop
  endfacet
  facet normal 0 1 0
    outer loop
      vertex -13.5071 -3.5 -7.63281
      vertex -14.819 -3.5 -8.52101
      vertex -14.819 -3.5 -8
    endloop
  endfacet
  facet normal 0 1 -0
    outer loop
      vertex -17.6137 -3.5 9.18882
      vertex -20 -3.5 10
      vertex -10 -3.5 10
    endloop
  endfacet
  facet normal 0 1 -0
    outer loop
      vertex -19.0113 -3.5 8.73473
      vertex -20 -3.5 10
      vertex -17.6137 -3.5 9.18882
    endloop
  endfacet
  facet normal 0 1 0
    outer loop
      vertex -20 -3.5 10
      vertex -19.0113 -3.5 8.73473
      vertex -20 -3.5 9.9706
    endloop
  endfacet
  facet normal 0 1 0
    outer loop
      vertex -20 -3.5 9.9706
      vertex -19.0113 -3.5 8.73473
      vertex -21.6226 -3.5 9.88276
    endloop
  endfacet
  facet normal 0 1 0
    outer loop
      vertex -10 -3.5 10
      vertex -16.75 -3.5 8
      vertex -17.6137 -3.5 9.18882
    endloop
  endfacet
  facet normal 0 1 -0
    outer loop
      vertex -10 -3.5 0.269904
      vertex -16.75 -3.5 8
      vertex -10 -3.5 10
    endloop
  endfacet
  facet normal 0 1 0
    outer loop
      vertex -19.0113 -3.5 7.26527
      vertex -29.5044 -3.5 3.1977
      vertex -28.5938 -3.5 5.16311
    endloop
  endfacet
  facet normal 0 1 0
    outer loop
      vertex -19.0113 -3.5 7.26527
      vertex -29.9706 -3.5 1.08278
      vertex -29.5044 -3.5 3.1977
    endloop
  endfacet
  facet normal 0 1 0
    outer loop
      vertex -16.75 -3.5 8
      vertex -10 -3.5 0.269904
      vertex -17.6137 -3.5 6.81118
    endloop
  endfacet
  facet normal 0 1 -0
    outer loop
      vertex -10.2051 -3.5 -2.15286
      vertex -17.6137 -3.5 6.81118
      vertex -10 -3.5 0.269904
    endloop
  endfacet
  facet normal 0 1 0
    outer loop
      vertex -10.2051 -3.5 -2.15286
      vertex -10 -3.5 0.269904
      vertex -9.9706 -3.5 0
    endloop
  endfacet
  facet normal 0 1 0
    outer loop
      vertex -25.9692 -3.5 -8
      vertex -17.6137 -3.5 6.81118
      vertex -14.819 -3.5 -8
    endloop
  endfacet
  facet normal 0 1 -0
    outer loop
      vertex -10.8976 -3.5 -4.20506
      vertex -17.6137 -3.5 6.81118
      vertex -10.2051 -3.5 -2.15286
    endloop
  endfacet
  facet normal 0 1 0
    outer loop
      vertex -19.0113 -3.5 7.26527
      vertex -29.9706 -3.5 -1.08278
      vertex -29.9706 -3.5 1.08278
    endloop
  endfacet
  facet normal 0 1 0
    outer loop
      vertex -17.6137 -3.5 6.81118
      vertex -10.8976 -3.5 -4.20506
      vertex -14.819 -3.5 -8
    endloop
  endfacet
  facet normal 0 1 0
    outer loop
      vertex -19.0113 -3.5 7.26527
      vertex -29.5044 -3.5 -3.1977
      vertex -29.9706 -3.5 -1.08278
    endloop
  endfacet
  facet normal 0 1 0
    outer loop
      vertex -14.819 -3.5 -8
      vertex -10.8976 -3.5 -4.20506
      vertex -12.0157 -3.5 -6.06063
    endloop
  endfacet
  facet normal 0 1 0
    outer loop
      vertex -19.0113 -3.5 7.26527
      vertex -28.5938 -3.5 -5.16311
      vertex -29.5044 -3.5 -3.1977
    endloop
  endfacet
  facet normal 0 1 0
    outer loop
      vertex -14.819 -3.5 -8
      vertex -12.0157 -3.5 -6.06063
      vertex -13.5071 -3.5 -7.63281
    endloop
  endfacet
  facet normal 0 1 0
    outer loop
      vertex -19.0113 -3.5 7.26527
      vertex -25.9692 -3.5 -8
      vertex -27.2813 -3.5 -6.88709
    endloop
  endfacet
  facet normal 0 1 0
    outer loop
      vertex -19.0113 -3.5 7.26527
      vertex -27.2813 -3.5 -6.88709
      vertex -28.5938 -3.5 -5.16311
    endloop
  endfacet
  facet normal 0 1 -0
    outer loop
      vertex -19.0113 -3.5 7.26527
      vertex -21.6226 -3.5 9.88276
      vertex -19.0113 -3.5 8.73473
    endloop
  endfacet
  facet normal 0 1 0
    outer loop
      vertex -21.6226 -3.5 9.88276
      vertex -19.0113 -3.5 7.26527
      vertex -23.7123 -3.5 9.30341
    endloop
  endfacet
  facet normal 0 1 0
    outer loop
      vertex -23.7123 -3.5 9.30341
      vertex -19.0113 -3.5 7.26527
      vertex -25.6284 -3.5 8.28905
    endloop
  endfacet
  facet normal 0 1 0
    outer loop
      vertex -19.0113 -3.5 7.26527
      vertex -27.2813 -3.5 6.88709
      vertex -25.6284 -3.5 8.28905
    endloop
  endfacet
  facet normal 0 1 0
    outer loop
      vertex -25.9692 -3.5 -8
      vertex -19.0113 -3.5 7.26527
      vertex -17.6137 -3.5 6.81118
    endloop
  endfacet
  facet normal 0 1 0
    outer loop
      vertex -19.0113 -3.5 7.26527
      vertex -28.5938 -3.5 5.16311
      vertex -27.2813 -3.5 6.88709
    endloop
  endfacet
  facet normal -1 0 0
    outer loop
      vertex -29.9706 -5.5 -1.08278
      vertex -29.9706 -3.5 1.08278
      vertex -29.9706 -3.5 -1.08278
    endloop
  endfacet
  facet normal -1 -0 0
    outer loop
      vertex -29.9706 -3.5 1.08278
      vertex -29.9706 -5.5 -1.08278
      vertex -29.9706 -5.5 1.08278
    endloop
  endfacet
  facet normal -0.907346 0 -0.420385
    outer loop
      vertex -28.5938 -5.5 -5.16311
      vertex -29.5044 -3.5 -3.1977
      vertex -28.5938 -3.5 -5.16311
    endloop
  endfacet
  facet normal -0.907346 -0 -0.420385
    outer loop
      vertex -29.5044 -3.5 -3.1977
      vertex -28.5938 -5.5 -5.16311
      vertex -29.5044 -5.5 -3.1977
    endloop
  endfacet
  facet normal -0.267163 0 0.963651
    outer loop
      vertex -23.7123 -3.5 9.30341
      vertex -21.6226 -5.5 9.88276
      vertex -21.6226 -3.5 9.88276
    endloop
  endfacet
  facet normal -0.267163 0 0.963651
    outer loop
      vertex -21.6226 -5.5 9.88276
      vertex -23.7123 -3.5 9.30341
      vertex -23.7123 -5.5 9.30341
    endloop
  endfacet
  facet normal 0 -1 0
    outer loop
      vertex -20 -5.5 9.9706
      vertex -10 -5.5 10
      vertex -20 -5.5 10
    endloop
  endfacet
  facet normal 0 -1 0
    outer loop
      vertex -17.7462 -5.5 -8
      vertex -20 -5.5 9.9706
      vertex -21.6226 -5.5 9.88276
    endloop
  endfacet
  facet normal 0 -1 0
    outer loop
      vertex -17.7462 -5.5 -8
      vertex -21.6226 -5.5 9.88276
      vertex -23.7123 -5.5 9.30341
    endloop
  endfacet
  facet normal 0 -1 0
    outer loop
      vertex -17.7462 -5.5 -8
      vertex -23.7123 -5.5 9.30341
      vertex -25.6284 -5.5 8.28905
    endloop
  endfacet
  facet normal 0 -1 0
    outer loop
      vertex -17.7462 -5.5 -8
      vertex -25.6284 -5.5 8.28905
      vertex -27.2813 -5.5 6.88709
    endloop
  endfacet
  facet normal 0 -1 0
    outer loop
      vertex -17.7462 -5.5 -8
      vertex -27.2813 -5.5 6.88709
      vertex -28.5938 -5.5 5.16311
    endloop
  endfacet
  facet normal 0 -1 0
    outer loop
      vertex -17.7462 -5.5 -8
      vertex -28.5938 -5.5 5.16311
      vertex -29.5044 -5.5 3.1977
    endloop
  endfacet
  facet normal 0 -1 0
    outer loop
      vertex -17.7462 -5.5 -8
      vertex -29.5044 -5.5 3.1977
      vertex -29.9706 -5.5 1.08278
    endloop
  endfacet
  facet normal 0 -1 0
    outer loop
      vertex -20 -5.5 9.9706
      vertex -10 -5.5 0.269904
      vertex -10 -5.5 10
    endloop
  endfacet
  facet normal 0 -1 0
    outer loop
      vertex -20 -5.5 9.9706
      vertex -17.7462 -5.5 -8
      vertex -10 -5.5 0.269904
    endloop
  endfacet
  facet normal 0 -1 0
    outer loop
      vertex -17.7462 -5.5 -8
      vertex -29.9706 -5.5 1.08278
      vertex -29.9706 -5.5 -1.08278
    endloop
  endfacet
  facet normal -0 -1 0
    outer loop
      vertex -10.2051 -5.5 -2.15286
      vertex -10 -5.5 0.269904
      vertex -17.7462 -5.5 -8
    endloop
  endfacet
  facet normal 0 -1 0
    outer loop
      vertex -17.7462 -5.5 -8
      vertex -29.9706 -5.5 -1.08278
      vertex -29.5044 -5.5 -3.1977
    endloop
  endfacet
  facet normal 0 -1 -0
    outer loop
      vertex -10 -5.5 0.269904
      vertex -10.2051 -5.5 -2.15286
      vertex -9.9706 -5.5 0
    endloop
  endfacet
  facet normal 0 -1 0
    outer loop
      vertex -17.7462 -5.5 -8
      vertex -29.5044 -5.5 -3.1977
      vertex -28.5938 -5.5 -5.16311
    endloop
  endfacet
  facet normal 0 -1 0
    outer loop
      vertex -10.2051 -5.5 -2.15286
      vertex -17.7462 -5.5 -8
      vertex -10.8976 -5.5 -4.20506
    endloop
  endfacet
  facet normal 0 -1 0
    outer loop
      vertex -17.7462 -5.5 -8
      vertex -28.5938 -5.5 -5.16311
      vertex -27.2813 -5.5 -6.88709
    endloop
  endfacet
  facet normal 0 -1 0
    outer loop
      vertex -10.8976 -5.5 -4.20506
      vertex -17.7462 -5.5 -8
      vertex -12.0157 -5.5 -6.06063
    endloop
  endfacet
  facet normal 0 -1 0
    outer loop
      vertex -17.7462 -5.5 -8
      vertex -27.2813 -5.5 -6.88709
      vertex -25.9692 -5.5 -8
    endloop
  endfacet
  facet normal 0 -1 0
    outer loop
      vertex -12.0157 -5.5 -6.06063
      vertex -17.7462 -5.5 -8
      vertex -13.5071 -5.5 -7.63281
    endloop
  endfacet
  facet normal 0 -1 0
    outer loop
      vertex -17.7462 -5.5 -8
      vertex -15.3021 -5.5 -8.8481
      vertex -13.5071 -5.5 -7.63281
    endloop
  endfacet
  facet normal 0 -1 0
    outer loop
      vertex -17.7462 -5.5 -8
      vertex -17.3169 -5.5 -9.64965
      vertex -15.3021 -5.5 -8.8481
    endloop
  endfacet
  facet normal -0 -1 0
    outer loop
      vertex -17.3169 -5.5 -9.64965
      vertex -17.7462 -5.5 -8
      vertex -17.7462 -5.5 -9.71993
    endloop
  endfacet
  facet normal -0.795656 0 0.605749
    outer loop
      vertex -28.5938 -5.5 5.16311
      vertex -27.2813 -3.5 6.88709
      vertex -28.5938 -3.5 5.16311
    endloop
  endfacet
  facet normal -0.795656 0 0.605749
    outer loop
      vertex -27.2813 -3.5 6.88709
      vertex -28.5938 -5.5 5.16311
      vertex -27.2813 -5.5 6.88709
    endloop
  endfacet
  facet normal -0.907346 0 0.420385
    outer loop
      vertex -29.5044 -5.5 3.1977
      vertex -28.5938 -3.5 5.16311
      vertex -29.5044 -3.5 3.1977
    endloop
  endfacet
  facet normal -0.907346 0 0.420385
    outer loop
      vertex -28.5938 -3.5 5.16311
      vertex -29.5044 -5.5 3.1977
      vertex -28.5938 -5.5 5.16311
    endloop
  endfacet
  facet normal -1 0 0
    outer loop
      vertex -20 -5.5 9.9706
      vertex -20 -3.5 10
      vertex -20 -3.5 9.9706
    endloop
  endfacet
  facet normal -1 -0 0
    outer loop
      vertex -20 -3.5 10
      vertex -20 -5.5 9.9706
      vertex -20 -5.5 10
    endloop
  endfacet
  facet normal 1 -0 0
    outer loop
      vertex -10 -5.5 10
      vertex -10 -3.5 0.269904
      vertex -10 -3.5 10
    endloop
  endfacet
  facet normal 1 0 0
    outer loop
      vertex -10 -3.5 0.269904
      vertex -10 -5.5 10
      vertex -10 -5.5 0.269904
    endloop
  endfacet
  facet normal -0 0 1
    outer loop
      vertex -20 -3.5 10
      vertex -10 -5.5 10
      vertex -10 -3.5 10
    endloop
  endfacet
  facet normal 0 0 1
    outer loop
      vertex -10 -5.5 10
      vertex -20 -3.5 10
      vertex -20 -5.5 10
    endloop
  endfacet
  facet normal -0.309006 0 -0.95106
    outer loop
      vertex -19.0113 -3.5 7.26527
      vertex -17.6137 -1 6.81118
      vertex -17.6137 -3.5 6.81118
    endloop
  endfacet
  facet normal -0.309006 0 -0.95106
    outer loop
      vertex -17.6137 -1 6.81118
      vertex -19.0113 -3.5 7.26527
      vertex -19.0113 -1 7.26527
    endloop
  endfacet
  facet normal -0.309006 0 0.95106
    outer loop
      vertex -19.0113 -1 8.73473
      vertex -17.6137 -3.5 9.18882
      vertex -17.6137 -1 9.18882
    endloop
  endfacet
  facet normal -0.309006 0 0.95106
    outer loop
      vertex -17.6137 -3.5 9.18882
      vertex -19.0113 -1 8.73473
      vertex -19.0113 -3.5 8.73473
    endloop
  endfacet
  facet normal 0.809026 -0 0.587773
    outer loop
      vertex -17.6137 -3.5 9.18882
      vertex -16.75 -1 8
      vertex -17.6137 -1 9.18882
    endloop
  endfacet
  facet normal 0.809026 0 0.587773
    outer loop
      vertex -16.75 -1 8
      vertex -17.6137 -3.5 9.18882
      vertex -16.75 -3.5 8
    endloop
  endfacet
  facet normal -1 0 0
    outer loop
      vertex -19.0113 -3.5 7.26527
      vertex -19.0113 -1 8.73473
      vertex -19.0113 -1 7.26527
    endloop
  endfacet
  facet normal -1 -0 0
    outer loop
      vertex -19.0113 -1 8.73473
      vertex -19.0113 -3.5 7.26527
      vertex -19.0113 -3.5 8.73473
    endloop
  endfacet
  facet normal 0 1 0
    outer loop
      vertex -16.75 -1 8
      vertex -19.0113 -1 8.73473
      vertex -17.6137 -1 9.18882
    endloop
  endfacet
  facet normal 0 1 0
    outer loop
      vertex -16.75 -1 8
      vertex -19.0113 -1 7.26527
      vertex -19.0113 -1 8.73473
    endloop
  endfacet
  facet normal -0 1 0
    outer loop
      vertex -19.0113 -1 7.26527
      vertex -16.75 -1 8
      vertex -17.6137 -1 6.81118
    endloop
  endfacet
  facet normal 0.809026 0 -0.587773
    outer loop
      vertex -16.75 -3.5 8
      vertex -17.6137 -1 6.81118
      vertex -16.75 -1 8
    endloop
  endfacet
  facet normal 0.809026 0 -0.587773
    outer loop
      vertex -17.6137 -1 6.81118
      vertex -16.75 -3.5 8
      vertex -17.6137 -3.5 6.81118
    endloop
  endfacet
endsolid OpenSCAD_Model
